<svg width="112" height="67" viewBox="0 0 112 67" fill="none" xmlns="http://www.w3.org/2000/svg">
<rect x="0.25" y="0.25" width="41.5" height="51.5" stroke="black" stroke-width="0.5"/>
<path d="M29.1544 12H30.8744V40H29.1544V25.86H12.8544V40H11.1344V12H12.8544V24.14H29.1544V12Z" fill="black"/>
<path d="M60.438 16.8H61.556V35H60.438V25.809H49.843V35H48.725V16.8H49.843V24.691H60.438V16.8ZM70.7804 16.8H72.3144L78.9444 35H77.7614L76.2144 30.749H66.8934L65.3464 35H64.1504L70.7804 16.8ZM67.2964 29.631H75.7984L71.5474 17.97L67.2964 29.631ZM81.4789 35V16.8H87.2379C88.1999 16.8 89.0666 17.0297 89.8379 17.489C90.6179 17.9483 91.2333 18.5767 91.6839 19.374C92.1346 20.1627 92.3599 21.051 92.3599 22.039C92.3599 22.9663 92.1606 23.8027 91.7619 24.548C91.3633 25.2933 90.8216 25.9 90.1369 26.368C89.4609 26.836 88.7069 27.1177 87.8749 27.213L92.3729 35H91.0729L86.5879 27.278H82.5969V35H81.4789ZM82.5969 26.16H87.1859C87.9313 26.16 88.6116 25.9823 89.2269 25.627C89.8423 25.263 90.3319 24.769 90.6959 24.145C91.0599 23.5123 91.2419 22.8017 91.2419 22.013C91.2419 21.2157 91.0599 20.505 90.6959 19.881C90.3319 19.2483 89.8423 18.7543 89.2269 18.399C88.6116 18.035 87.9313 17.853 87.1859 17.853H82.5969V26.16ZM95.9516 35V16.8H101.958C103.223 16.8 104.402 17.0383 105.494 17.515C106.594 17.983 107.561 18.6373 108.393 19.478C109.233 20.31 109.888 21.2763 110.356 22.377C110.824 23.469 111.058 24.6433 111.058 25.9C111.058 27.1567 110.824 28.3353 110.356 29.436C109.888 30.528 109.233 31.4943 108.393 32.335C107.561 33.167 106.594 33.8213 105.494 34.298C104.402 34.766 103.223 35 101.958 35H95.9516ZM97.0696 33.882H101.958C103.067 33.882 104.103 33.6783 105.065 33.271C106.035 32.855 106.885 32.283 107.613 31.555C108.341 30.8183 108.908 29.969 109.316 29.007C109.732 28.0363 109.94 27.0007 109.94 25.9C109.94 24.7993 109.732 23.768 109.316 22.806C108.908 21.8353 108.336 20.986 107.6 20.258C106.872 19.5213 106.027 18.9493 105.065 18.542C104.103 18.126 103.067 17.918 101.958 17.918H97.0696V33.882Z" fill="black"/>
<path d="M10.9636 55H11.4796V64H10.9636V62.686C10.7516 63.126 10.4456 63.482 10.0456 63.754C9.64956 64.022 9.17356 64.156 8.61756 64.156C8.18156 64.156 7.77356 64.074 7.39356 63.91C7.01356 63.746 6.67756 63.52 6.38556 63.232C6.09756 62.94 5.87156 62.604 5.70756 62.224C5.54356 61.844 5.46156 61.436 5.46156 61C5.46156 60.56 5.54356 60.15 5.70756 59.77C5.87156 59.386 6.09756 59.05 6.38556 58.762C6.67756 58.47 7.01356 58.242 7.39356 58.078C7.77356 57.914 8.18156 57.832 8.61756 57.832C9.17356 57.832 9.64956 57.968 10.0456 58.24C10.4456 58.508 10.7516 58.862 10.9636 59.302V55ZM8.61756 63.646C9.10556 63.646 9.52156 63.528 9.86556 63.292C10.2096 63.052 10.4716 62.732 10.6516 62.332C10.8356 61.928 10.9276 61.484 10.9276 61C10.9276 60.504 10.8356 60.056 10.6516 59.656C10.4676 59.252 10.2016 58.932 9.85356 58.696C9.50956 58.46 9.09756 58.342 8.61756 58.342C8.13356 58.342 7.69156 58.462 7.29156 58.702C6.89556 58.938 6.57756 59.258 6.33756 59.662C6.10156 60.066 5.98356 60.512 5.98356 61C5.98356 61.496 6.10556 61.944 6.34956 62.344C6.59356 62.744 6.91356 63.062 7.30956 63.298C7.70956 63.53 8.14556 63.646 8.61756 63.646ZM15.5397 64.156C14.9877 64.156 14.4837 64.014 14.0277 63.73C13.5757 63.446 13.2137 63.066 12.9417 62.59C12.6737 62.11 12.5397 61.58 12.5397 61C12.5397 60.56 12.6177 60.15 12.7737 59.77C12.9297 59.386 13.1437 59.05 13.4157 58.762C13.6917 58.47 14.0117 58.242 14.3757 58.078C14.7397 57.914 15.1277 57.832 15.5397 57.832C15.9717 57.832 16.3697 57.916 16.7337 58.084C17.1017 58.248 17.4197 58.482 17.6877 58.786C17.9557 59.086 18.1617 59.444 18.3057 59.86C18.4537 60.272 18.5257 60.726 18.5217 61.222H13.0737C13.1137 61.686 13.2477 62.1 13.4757 62.464C13.7077 62.824 14.0017 63.11 14.3577 63.322C14.7137 63.534 15.1077 63.64 15.5397 63.64C16.0157 63.64 16.4437 63.514 16.8237 63.262C17.2037 63.01 17.5057 62.664 17.7297 62.224L18.2517 62.344C18.0117 62.876 17.6497 63.312 17.1657 63.652C16.6817 63.988 16.1397 64.156 15.5397 64.156ZM13.0617 60.76H18.0057C17.9857 60.324 17.8617 59.922 17.6337 59.554C17.4097 59.182 17.1137 58.884 16.7457 58.66C16.3817 58.436 15.9797 58.324 15.5397 58.324C15.0957 58.324 14.6937 58.434 14.3337 58.654C13.9737 58.87 13.6797 59.164 13.4517 59.536C13.2277 59.904 13.0977 60.312 13.0617 60.76ZM21.8053 64H21.1693L18.9733 57.976H19.5253L21.4873 63.382L23.4493 57.976H24.0013L21.8053 64ZM27.4459 64.156C26.8939 64.156 26.3899 64.014 25.9339 63.73C25.4819 63.446 25.1199 63.066 24.8479 62.59C24.5799 62.11 24.4459 61.58 24.4459 61C24.4459 60.56 24.5239 60.15 24.6799 59.77C24.8359 59.386 25.0499 59.05 25.3219 58.762C25.5979 58.47 25.9179 58.242 26.2819 58.078C26.6459 57.914 27.0339 57.832 27.4459 57.832C27.8779 57.832 28.2759 57.916 28.6399 58.084C29.0079 58.248 29.3259 58.482 29.5939 58.786C29.8619 59.086 30.0679 59.444 30.2119 59.86C30.3599 60.272 30.4319 60.726 30.4279 61.222H24.9799C25.0199 61.686 25.1539 62.1 25.3819 62.464C25.6139 62.824 25.9079 63.11 26.2639 63.322C26.6199 63.534 27.0139 63.64 27.4459 63.64C27.9219 63.64 28.3499 63.514 28.7299 63.262C29.1099 63.01 29.4119 62.664 29.6359 62.224L30.1579 62.344C29.9179 62.876 29.5559 63.312 29.0719 63.652C28.5879 63.988 28.0459 64.156 27.4459 64.156ZM24.9679 60.76H29.9119C29.8919 60.324 29.7679 59.922 29.5399 59.554C29.3159 59.182 29.0199 58.884 28.6519 58.66C28.2879 58.436 27.8859 58.324 27.4459 58.324C27.0019 58.324 26.5999 58.434 26.2399 58.654C25.8799 58.87 25.5859 59.164 25.3579 59.536C25.1339 59.904 25.0039 60.312 24.9679 60.76ZM31.4739 64V55H31.9899V64H31.4739ZM36.0475 64.156C35.4955 64.156 34.9915 64.014 34.5355 63.73C34.0835 63.446 33.7215 63.066 33.4495 62.59C33.1815 62.11 33.0475 61.58 33.0475 61C33.0475 60.56 33.1255 60.15 33.2815 59.77C33.4375 59.386 33.6515 59.05 33.9235 58.762C34.1995 58.47 34.5195 58.242 34.8835 58.078C35.2475 57.914 35.6355 57.832 36.0475 57.832C36.5995 57.832 37.1015 57.974 37.5535 58.258C38.0095 58.542 38.3715 58.924 38.6395 59.404C38.9115 59.884 39.0475 60.416 39.0475 61C39.0475 61.436 38.9695 61.844 38.8135 62.224C38.6575 62.604 38.4415 62.94 38.1655 63.232C37.8935 63.52 37.5755 63.746 37.2115 63.91C36.8515 64.074 36.4635 64.156 36.0475 64.156ZM36.0475 63.64C36.5155 63.64 36.9355 63.518 37.3075 63.274C37.6835 63.03 37.9815 62.708 38.2015 62.308C38.4215 61.908 38.5315 61.472 38.5315 61C38.5315 60.524 38.4215 60.086 38.2015 59.686C37.9815 59.282 37.6835 58.958 37.3075 58.714C36.9355 58.47 36.5155 58.348 36.0475 58.348C35.5755 58.348 35.1515 58.47 34.7755 58.714C34.4035 58.958 34.1075 59.282 33.8875 59.686C33.6715 60.086 33.5635 60.524 33.5635 61C33.5635 61.492 33.6755 61.938 33.8995 62.338C34.1275 62.734 34.4295 63.05 34.8055 63.286C35.1815 63.522 35.5955 63.64 36.0475 63.64ZM40.6149 67H40.0989V58H40.6149V59.314C40.8269 58.874 41.1329 58.52 41.5329 58.252C41.9329 57.98 42.4089 57.844 42.9609 57.844C43.3969 57.844 43.8049 57.926 44.1849 58.09C44.5649 58.254 44.8989 58.482 45.1869 58.774C45.4789 59.062 45.7069 59.396 45.8709 59.776C46.0349 60.156 46.1169 60.564 46.1169 61C46.1169 61.436 46.0349 61.846 45.8709 62.23C45.7069 62.614 45.4789 62.952 45.1869 63.244C44.8989 63.532 44.5649 63.758 44.1849 63.922C43.8049 64.086 43.3969 64.168 42.9609 64.168C42.4089 64.168 41.9329 64.034 41.5329 63.766C41.1329 63.494 40.8269 63.138 40.6149 62.698V67ZM42.9609 58.354C42.4809 58.354 42.0669 58.472 41.7189 58.708C41.3749 58.944 41.1109 59.262 40.9269 59.662C40.7429 60.062 40.6509 60.508 40.6509 61C40.6509 61.484 40.7409 61.928 40.9209 62.332C41.1049 62.736 41.3689 63.058 41.7129 63.298C42.0569 63.538 42.4729 63.658 42.9609 63.658C43.4329 63.658 43.8689 63.54 44.2689 63.304C44.6689 63.068 44.9889 62.75 45.2289 62.35C45.4729 61.95 45.5949 61.5 45.5949 61C45.5949 60.516 45.4769 60.074 45.2409 59.674C45.0049 59.27 44.6869 58.95 44.2869 58.714C43.8909 58.474 43.4489 58.354 42.9609 58.354ZM47.177 64V58H47.693V58.978C47.913 58.63 48.205 58.352 48.569 58.144C48.937 57.936 49.339 57.832 49.775 57.832C50.247 57.832 50.677 57.95 51.065 58.186C51.453 58.422 51.753 58.734 51.965 59.122C52.177 58.734 52.475 58.422 52.859 58.186C53.247 57.95 53.675 57.832 54.143 57.832C54.603 57.832 55.021 57.944 55.397 58.168C55.777 58.392 56.079 58.694 56.303 59.074C56.527 59.45 56.639 59.868 56.639 60.328V64H56.123V60.406C56.123 60.038 56.033 59.698 55.853 59.386C55.677 59.074 55.439 58.824 55.139 58.636C54.843 58.444 54.511 58.348 54.143 58.348C53.783 58.348 53.453 58.436 53.153 58.612C52.853 58.788 52.613 59.03 52.433 59.338C52.257 59.646 52.169 60.002 52.169 60.406V64H51.653V60.406C51.653 60.002 51.563 59.646 51.383 59.338C51.207 59.03 50.969 58.788 50.669 58.612C50.369 58.436 50.037 58.348 49.673 58.348C49.309 58.348 48.977 58.444 48.677 58.636C48.377 58.824 48.137 59.074 47.957 59.386C47.781 59.698 47.693 60.038 47.693 60.406V64H47.177ZM60.3639 64.156C59.8119 64.156 59.3079 64.014 58.8519 63.73C58.3999 63.446 58.0379 63.066 57.7659 62.59C57.4979 62.11 57.3639 61.58 57.3639 61C57.3639 60.56 57.4419 60.15 57.5979 59.77C57.7539 59.386 57.9679 59.05 58.2399 58.762C58.5159 58.47 58.8359 58.242 59.1999 58.078C59.5639 57.914 59.9519 57.832 60.3639 57.832C60.7959 57.832 61.1939 57.916 61.5579 58.084C61.9259 58.248 62.2439 58.482 62.5119 58.786C62.7799 59.086 62.9859 59.444 63.1299 59.86C63.2779 60.272 63.3499 60.726 63.3459 61.222H57.8979C57.9379 61.686 58.0719 62.1 58.2999 62.464C58.5319 62.824 58.8259 63.11 59.1819 63.322C59.5379 63.534 59.9319 63.64 60.3639 63.64C60.8399 63.64 61.2679 63.514 61.6479 63.262C62.0279 63.01 62.3299 62.664 62.5539 62.224L63.0759 62.344C62.8359 62.876 62.4739 63.312 61.9899 63.652C61.5059 63.988 60.9639 64.156 60.3639 64.156ZM57.8859 60.76H62.8299C62.8099 60.324 62.6859 59.922 62.4579 59.554C62.2339 59.182 61.9379 58.884 61.5699 58.66C61.2059 58.436 60.8039 58.324 60.3639 58.324C59.9199 58.324 59.5179 58.434 59.1579 58.654C58.7979 58.87 58.5039 59.164 58.2759 59.536C58.0519 59.904 57.9219 60.312 57.8859 60.76ZM69.4976 60.328V64H68.9816V60.382C68.9816 60.006 68.8896 59.666 68.7056 59.362C68.5256 59.054 68.2816 58.808 67.9736 58.624C67.6656 58.44 67.3256 58.348 66.9536 58.348C66.5776 58.348 66.2356 58.44 65.9276 58.624C65.6196 58.808 65.3736 59.054 65.1896 59.362C65.0096 59.666 64.9196 60.006 64.9196 60.382V64H64.4036V58H64.9196V58.978C65.1356 58.63 65.4276 58.352 65.7956 58.144C66.1636 57.936 66.5656 57.832 67.0016 57.832C67.4616 57.832 67.8796 57.944 68.2556 58.168C68.6356 58.392 68.9376 58.694 69.1616 59.074C69.3856 59.45 69.4976 59.868 69.4976 60.328ZM73.6846 58.516H72.1126L72.1006 64H71.5846L71.5966 58.516H70.4086V58H71.5966L71.5846 56.116H72.1006L72.1126 58H73.6846V58.516ZM79.5418 64.12C79.2058 64.116 78.8758 64.058 78.5518 63.946C78.2318 63.83 77.9518 63.674 77.7118 63.478C77.4758 63.282 77.3138 63.064 77.2258 62.824L77.6878 62.626C77.7598 62.822 77.8978 62.996 78.1018 63.148C78.3098 63.3 78.5458 63.42 78.8098 63.508C79.0738 63.592 79.3258 63.634 79.5658 63.634C79.8578 63.634 80.1298 63.584 80.3818 63.484C80.6338 63.384 80.8378 63.244 80.9938 63.064C81.1538 62.88 81.2338 62.668 81.2338 62.428C81.2338 62.172 81.1498 61.97 80.9818 61.822C80.8178 61.674 80.6078 61.554 80.3518 61.462C80.0958 61.37 79.8298 61.282 79.5538 61.198C79.1058 61.066 78.7198 60.934 78.3958 60.802C78.0758 60.67 77.8298 60.504 77.6578 60.304C77.4858 60.104 77.3998 59.836 77.3998 59.5C77.3998 59.152 77.5018 58.852 77.7058 58.6C77.9098 58.344 78.1758 58.146 78.5038 58.006C78.8358 57.866 79.1898 57.796 79.5658 57.796C80.0618 57.796 80.5098 57.906 80.9098 58.126C81.3138 58.342 81.5938 58.626 81.7498 58.978L81.3178 59.23C81.2378 59.034 81.1058 58.866 80.9218 58.726C80.7378 58.586 80.5278 58.478 80.2918 58.402C80.0558 58.322 79.8198 58.282 79.5838 58.282C79.2878 58.282 79.0118 58.33 78.7558 58.426C78.4998 58.522 78.2918 58.662 78.1318 58.846C77.9758 59.026 77.8978 59.242 77.8978 59.494C77.8978 59.754 77.9678 59.952 78.1078 60.088C78.2478 60.22 78.4438 60.33 78.6958 60.418C78.9518 60.502 79.2538 60.6 79.6018 60.712C79.9738 60.828 80.3218 60.956 80.6458 61.096C80.9698 61.232 81.2318 61.404 81.4318 61.612C81.6318 61.82 81.7318 62.09 81.7318 62.422C81.7318 62.77 81.6278 63.072 81.4198 63.328C81.2158 63.584 80.9458 63.782 80.6098 63.922C80.2778 64.058 79.9218 64.124 79.5418 64.12ZM85.7549 58.516H84.1829L84.1709 64H83.6549L83.6669 58.516H82.4789V58H83.6669L83.6549 56.116H84.1709L84.1829 58H85.7549V58.516ZM86.5933 61.66V58H87.1093V61.606C87.1093 61.982 87.1993 62.324 87.3793 62.632C87.5633 62.936 87.8093 63.18 88.1173 63.364C88.4253 63.548 88.7673 63.64 89.1433 63.64C89.5153 63.64 89.8533 63.548 90.1573 63.364C90.4653 63.18 90.7113 62.936 90.8953 62.632C91.0793 62.324 91.1713 61.982 91.1713 61.606V58H91.6873V64H91.1713V63.01C90.9513 63.354 90.6573 63.632 90.2893 63.844C89.9253 64.052 89.5253 64.156 89.0893 64.156C88.6293 64.156 88.2093 64.044 87.8293 63.82C87.4533 63.596 87.1533 63.296 86.9293 62.92C86.7053 62.54 86.5933 62.12 86.5933 61.66ZM98.0104 55H98.5264V64H98.0104V62.686C97.7984 63.126 97.4924 63.482 97.0924 63.754C96.6964 64.022 96.2204 64.156 95.6644 64.156C95.2284 64.156 94.8204 64.074 94.4404 63.91C94.0604 63.746 93.7244 63.52 93.4324 63.232C93.1444 62.94 92.9184 62.604 92.7544 62.224C92.5904 61.844 92.5084 61.436 92.5084 61C92.5084 60.56 92.5904 60.15 92.7544 59.77C92.9184 59.386 93.1444 59.05 93.4324 58.762C93.7244 58.47 94.0604 58.242 94.4404 58.078C94.8204 57.914 95.2284 57.832 95.6644 57.832C96.2204 57.832 96.6964 57.968 97.0924 58.24C97.4924 58.508 97.7984 58.862 98.0104 59.302V55ZM95.6644 63.646C96.1524 63.646 96.5684 63.528 96.9124 63.292C97.2564 63.052 97.5184 62.732 97.6984 62.332C97.8824 61.928 97.9744 61.484 97.9744 61C97.9744 60.504 97.8824 60.056 97.6984 59.656C97.5144 59.252 97.2484 58.932 96.9004 58.696C96.5564 58.46 96.1444 58.342 95.6644 58.342C95.1804 58.342 94.7384 58.462 94.3384 58.702C93.9424 58.938 93.6244 59.258 93.3844 59.662C93.1484 60.066 93.0304 60.512 93.0304 61C93.0304 61.496 93.1524 61.944 93.3964 62.344C93.6404 62.744 93.9604 63.062 94.3564 63.298C94.7564 63.53 95.1924 63.646 95.6644 63.646ZM99.97 58H100.486V64H99.97V58ZM100.234 56.806C100.142 56.806 100.062 56.776 99.994 56.716C99.926 56.652 99.892 56.572 99.892 56.476C99.892 56.376 99.926 56.296 99.994 56.236C100.062 56.176 100.142 56.146 100.234 56.146C100.326 56.146 100.404 56.176 100.468 56.236C100.536 56.296 100.57 56.374 100.57 56.47C100.57 56.57 100.538 56.652 100.474 56.716C100.41 56.776 100.33 56.806 100.234 56.806ZM104.544 64.156C103.992 64.156 103.488 64.014 103.032 63.73C102.58 63.446 102.218 63.066 101.946 62.59C101.678 62.11 101.544 61.58 101.544 61C101.544 60.56 101.622 60.15 101.778 59.77C101.934 59.386 102.148 59.05 102.42 58.762C102.696 58.47 103.016 58.242 103.38 58.078C103.744 57.914 104.132 57.832 104.544 57.832C105.096 57.832 105.598 57.974 106.05 58.258C106.506 58.542 106.868 58.924 107.136 59.404C107.408 59.884 107.544 60.416 107.544 61C107.544 61.436 107.466 61.844 107.31 62.224C107.154 62.604 106.938 62.94 106.662 63.232C106.39 63.52 106.072 63.746 105.708 63.91C105.348 64.074 104.96 64.156 104.544 64.156ZM104.544 63.64C105.012 63.64 105.432 63.518 105.804 63.274C106.18 63.03 106.478 62.708 106.698 62.308C106.918 61.908 107.028 61.472 107.028 61C107.028 60.524 106.918 60.086 106.698 59.686C106.478 59.282 106.18 58.958 105.804 58.714C105.432 58.47 105.012 58.348 104.544 58.348C104.072 58.348 103.648 58.47 103.272 58.714C102.9 58.958 102.604 59.282 102.384 59.686C102.168 60.086 102.06 60.524 102.06 61C102.06 61.492 102.172 61.938 102.396 62.338C102.624 62.734 102.926 63.05 103.302 63.286C103.678 63.522 104.092 63.64 104.544 63.64Z" fill="url(#paint0_linear_10_9)"/>
<defs>
<linearGradient id="paint0_linear_10_9" x1="1" y1="52" x2="108" y2="64" gradientUnits="userSpaceOnUse">
<stop/>
<stop offset="1" stop-color="#666666"/>
</linearGradient>
</defs>
</svg>
